<svg width="32" height="32" viewBox="0 0 32 32" fill="none" xmlns="http://www.w3.org/2000/svg">
<mask id="path-1-inside-1_213_253" fill="white">
<path d="M12.5327 15.9999L19.4636 23.1226C19.5207 23.18 19.5658 23.2481 19.5963 23.3231C19.6269 23.398 19.6423 23.4783 19.6416 23.5592C19.6409 23.6402 19.6242 23.7202 19.5924 23.7946C19.5606 23.869 19.5144 23.9364 19.4564 23.9929C19.3983 24.0493 19.3297 24.0937 19.2545 24.1234C19.1792 24.1532 19.0988 24.1677 19.0178 24.1661C18.9369 24.1646 18.8571 24.147 18.783 24.1144C18.7089 24.0819 18.642 24.0349 18.5862 23.9763L11.2408 16.4268C11.1296 16.3125 11.0674 16.1594 11.0674 15.9999C11.0674 15.8405 11.1296 15.6874 11.2408 15.5731L18.5862 8.0236C18.642 7.96499 18.7089 7.91803 18.783 7.88544C18.8571 7.85285 18.9369 7.83528 19.0178 7.83374C19.0988 7.8322 19.1792 7.84672 19.2545 7.87647C19.3297 7.90621 19.3984 7.95059 19.4564 8.00704C19.5144 8.06348 19.5606 8.13087 19.5924 8.2053C19.6242 8.27973 19.6409 8.35973 19.6416 8.44066C19.6423 8.5216 19.6269 8.60186 19.5963 8.67681C19.5658 8.75176 19.5207 8.81991 19.4636 8.87731L12.5327 15.9999Z"/>
</mask>
<path d="M12.5327 15.9999L8.23261 11.8156L4.16093 15.9999L8.23261 20.1843L12.5327 15.9999ZM19.4636 23.1226L15.1634 27.3069L15.1858 27.3299L15.2085 27.3527L19.4636 23.1226ZM18.5862 23.9763L22.9311 19.8384L22.909 19.8152L22.8866 19.7922L18.5862 23.9763ZM11.2408 16.4268L6.94029 20.6108L6.94041 20.6109L11.2408 16.4268ZM11.2408 15.5731L6.94041 11.389L6.94029 11.3891L11.2408 15.5731ZM18.5862 8.0236L22.8866 12.2077L22.909 12.1847L22.9311 12.1615L18.5862 8.0236ZM19.4636 8.87731L15.2085 4.64717L15.1858 4.66994L15.1634 4.69296L19.4636 8.87731ZM8.23261 20.1843L15.1634 27.3069L23.7637 18.9382L16.8329 11.8156L8.23261 20.1843ZM15.2085 27.3527C14.7062 26.8475 14.3091 26.2477 14.0402 25.588L25.1524 21.0582C24.8224 20.2486 24.3351 19.5125 23.7187 18.8924L15.2085 27.3527ZM14.0402 25.588C13.7713 24.9283 13.6359 24.2218 13.6418 23.5094L25.6414 23.6091C25.6486 22.7348 25.4824 21.8678 25.1524 21.0582L14.0402 25.588ZM13.6418 23.5094C13.6477 22.797 13.7948 22.0929 14.0747 21.4377L25.1101 26.1515C25.4535 25.3474 25.6341 24.4833 25.6414 23.6091L13.6418 23.5094ZM14.0747 21.4377C14.3545 20.7825 14.7615 20.1894 15.2721 19.6926L23.6406 28.2931C24.2672 27.6834 24.7667 26.9555 25.1101 26.1515L14.0747 21.4377ZM15.2721 19.6926C15.7827 19.1958 16.3867 18.8052 17.0493 18.5433L21.4596 29.7035C22.2727 29.3822 23.014 28.9028 23.6406 28.2931L15.2721 19.6926ZM17.0493 18.5433C17.7119 18.2815 18.4198 18.1537 19.132 18.1672L18.9036 30.1651C19.7777 30.1817 20.6465 30.0248 21.4596 29.7035L17.0493 18.5433ZM19.132 18.1672C19.8443 18.1808 20.5469 18.3355 21.199 18.6223L16.3671 29.6065C17.1673 29.9586 18.0295 30.1484 18.9036 30.1651L19.132 18.1672ZM21.199 18.6223C21.8511 18.9092 22.4398 19.3225 22.9311 19.8384L14.2413 28.1141C14.8443 28.7473 15.5668 29.2545 16.3671 29.6065L21.199 18.6223ZM22.8866 19.7922L15.5411 12.2427L6.94041 20.6109L14.2859 28.1604L22.8866 19.7922ZM15.5412 12.2428C16.5199 13.2487 17.0674 14.5966 17.0674 15.9999L5.06738 15.9999C5.06738 17.7221 5.73931 19.3764 6.94029 20.6108L15.5412 12.2428ZM17.0674 15.9999C17.0674 17.4033 16.5199 18.7512 15.5412 19.7571L6.94029 11.3891C5.73932 12.6235 5.06738 14.2778 5.06738 15.9999L17.0674 15.9999ZM15.5411 19.7572L22.8866 12.2077L14.2859 3.83947L6.94041 11.389L15.5411 19.7572ZM22.9311 12.1615C22.4398 12.6774 21.851 13.0907 21.199 13.3775L16.3671 2.39334C15.5668 2.74536 14.8443 3.2526 14.2413 3.88574L22.9311 12.1615ZM21.199 13.3775C20.5468 13.6644 19.8443 13.8191 19.132 13.8327L18.9036 1.83483C18.0295 1.85147 17.1674 2.0413 16.3671 2.39334L21.199 13.3775ZM19.132 13.8327C18.4198 13.8462 17.7119 13.7184 17.0493 13.4566L21.4596 2.29638C20.6465 1.97505 19.7777 1.81819 18.9036 1.83483L19.132 13.8327ZM17.0493 13.4566C16.3868 13.1947 15.7827 12.8041 15.2721 12.3073L23.6406 3.70679C23.014 3.09707 22.2727 2.6177 21.4596 2.29638L17.0493 13.4566ZM15.2721 12.3073C14.7615 11.8105 14.3545 11.2173 14.0747 10.5622L25.1101 5.84842C24.7667 5.04441 24.2672 4.31649 23.6406 3.70679L15.2721 12.3073ZM14.0747 10.5622C13.7948 9.90701 13.6477 9.20287 13.6418 8.49051L25.6414 8.39082C25.6341 7.51659 25.4536 6.65245 25.1101 5.84842L14.0747 10.5622ZM13.6418 8.49051C13.6359 7.77812 13.7713 7.07164 14.0402 6.41193L25.1524 10.9417C25.4824 10.1321 25.6486 9.26507 25.6414 8.39082L13.6418 8.49051ZM14.0402 6.41193C14.3091 5.75224 14.7062 5.15241 15.2085 4.64717L23.7187 13.1074C24.3351 12.4874 24.8224 11.7513 25.1524 10.9417L14.0402 6.41193ZM15.1634 4.69296L8.23261 11.8156L16.8329 20.1843L23.7637 13.0617L15.1634 4.69296Z" fill="#909293" mask="url(#path-1-inside-1_213_253)"/>
<circle cx="15.9791" cy="15.9999" r="14.473" transform="rotate(-180 15.9791 15.9999)" stroke="#909293" stroke-width="2"/>
</svg>
