<svg width="31" height="32" viewBox="0 0 31 32" fill="none" xmlns="http://www.w3.org/2000/svg">
<mask id="path-1-inside-1_213_252" fill="white">
<path d="M18.9731 15.9998L12.0423 8.87718C11.9852 8.81978 11.9401 8.75163 11.9095 8.67668C11.879 8.60173 11.8636 8.52147 11.8643 8.44053C11.865 8.3596 11.8817 8.2796 11.9135 8.20517C11.9453 8.13074 11.9915 8.06335 12.0495 8.00691C12.1075 7.95046 12.1761 7.90608 12.2514 7.87634C12.3267 7.84659 12.4071 7.83207 12.488 7.83361C12.569 7.83515 12.6488 7.85272 12.7229 7.88531C12.7969 7.9179 12.8638 7.96486 12.9196 8.02347L20.2651 15.573C20.3763 15.6872 20.4385 15.8404 20.4385 15.9998C20.4385 16.1592 20.3763 16.3124 20.2651 16.4267L12.9196 23.9762C12.8638 24.0348 12.7969 24.0817 12.7229 24.1143C12.6488 24.1469 12.569 24.1645 12.488 24.166C12.4071 24.1676 12.3267 24.153 12.2514 24.1233C12.1761 24.0935 12.1075 24.0492 12.0495 23.9927C11.9915 23.9363 11.9453 23.8689 11.9135 23.7945C11.8817 23.72 11.865 23.64 11.8643 23.5591C11.8636 23.4782 11.879 23.3979 11.9095 23.3229C11.9401 23.248 11.9852 23.1798 12.0423 23.1224L18.9731 15.9998Z"/>
</mask>
<path d="M18.9731 15.9998L23.2733 20.1842L27.3449 15.9998L23.2733 11.8155L18.9731 15.9998ZM12.0423 8.87718L16.3424 4.69283L16.32 4.66981L16.2974 4.64704L12.0423 8.87718ZM12.9196 8.02347L8.57475 12.1613L8.5969 12.1846L8.61929 12.2076L12.9196 8.02347ZM20.2651 15.573L24.5656 11.389L24.5654 11.3888L20.2651 15.573ZM20.2651 16.4267L24.5654 20.6108L24.5656 20.6107L20.2651 16.4267ZM12.9196 23.9762L8.61929 19.792L8.5969 19.815L8.57475 19.8383L12.9196 23.9762ZM12.0423 23.1224L16.2974 27.3526L16.32 27.3298L16.3424 27.3068L12.0423 23.1224ZM23.2733 11.8155L16.3424 4.69283L7.74213 13.0615L14.673 20.1842L23.2733 11.8155ZM16.2974 4.64704C16.7997 5.15228 17.1967 5.7521 17.4656 6.4118L6.35344 10.9416C6.68346 11.7512 7.17076 12.4873 7.78716 13.1073L16.2974 4.64704ZM17.4656 6.4118C17.7346 7.0715 17.87 7.77799 17.8641 8.49038L5.86449 8.39069C5.85722 9.26494 6.02341 10.132 6.35344 10.9416L17.4656 6.4118ZM17.8641 8.49038C17.8582 9.20274 17.711 9.90688 17.4312 10.562L6.39575 5.84829C6.05231 6.65232 5.87175 7.51646 5.86449 8.39069L17.8641 8.49038ZM17.4312 10.562C17.1513 11.2172 16.7443 11.8104 16.2337 12.3072L7.86526 3.70666C7.23867 4.31635 6.73919 5.04426 6.39575 5.84829L17.4312 10.562ZM16.2337 12.3072C15.7232 12.804 15.1191 13.1946 14.4566 13.4564L10.0463 2.29625C9.23316 2.61758 8.49186 3.09696 7.86526 3.70666L16.2337 12.3072ZM14.4566 13.4564C13.794 13.7182 13.0861 13.8461 12.3738 13.8325L12.6022 1.83469C11.7281 1.81805 10.8594 1.97493 10.0463 2.29625L14.4566 13.4564ZM12.3738 13.8325C11.6615 13.819 10.959 13.6643 10.3069 13.3774L15.1388 2.39321C14.3385 2.04117 13.4764 1.85134 12.6022 1.83469L12.3738 13.8325ZM10.3069 13.3774C9.6548 13.0906 9.06606 12.6772 8.57475 12.1613L17.2645 3.88561C16.6616 3.2525 15.9391 2.74525 15.1388 2.39321L10.3069 13.3774ZM8.61929 12.2076L15.9647 19.7571L24.5654 11.3888L17.22 3.83934L8.61929 12.2076ZM15.9646 19.757C14.986 18.7511 14.4385 17.4031 14.4385 15.9998H26.4385C26.4385 14.2776 25.7665 12.6234 24.5656 11.389L15.9646 19.757ZM14.4385 15.9998C14.4385 14.5965 14.986 13.2485 15.9646 12.2427L24.5656 20.6107C25.7665 19.3763 26.4385 17.722 26.4385 15.9998H14.4385ZM15.9647 12.2425L8.61929 19.792L17.22 28.1603L24.5654 20.6108L15.9647 12.2425ZM8.57475 19.8383C9.06609 19.3224 9.65484 18.909 10.3069 18.6222L15.1388 29.6064C15.939 29.2544 16.6616 28.7472 17.2645 28.114L8.57475 19.8383ZM10.3069 18.6222C10.959 18.3353 11.6615 18.1807 12.3738 18.1671L12.6022 30.1649C13.4764 30.1483 14.3385 29.9585 15.1388 29.6064L10.3069 18.6222ZM12.3738 18.1671C13.0861 18.1535 13.794 18.2814 14.4566 18.5432L10.0463 29.7034C10.8594 30.0247 11.7281 30.1816 12.6022 30.1649L12.3738 18.1671ZM14.4566 18.5432C15.1191 18.805 15.7231 19.1956 16.2337 19.6925L7.86526 28.293C8.49188 28.9027 9.23319 29.3821 10.0463 29.7034L14.4566 18.5432ZM16.2337 19.6925C16.7443 20.1893 17.1513 20.7824 17.4312 21.4376L6.39575 26.1513C6.73918 26.9553 7.23865 27.6833 7.86526 28.293L16.2337 19.6925ZM17.4312 21.4376C17.711 22.0927 17.8582 22.7969 17.8641 23.5092L5.86449 23.6089C5.87175 24.4832 6.05231 25.3473 6.39575 26.1513L17.4312 21.4376ZM17.8641 23.5092C17.87 24.2216 17.7346 24.9281 17.4656 25.5878L6.35344 21.0581C6.02341 21.8677 5.85722 22.7347 5.86449 23.6089L17.8641 23.5092ZM17.4656 25.5878C17.1967 26.2475 16.7997 26.8473 16.2974 27.3526L7.78716 18.8923C7.17076 19.5124 6.68346 20.2485 6.35344 21.0581L17.4656 25.5878ZM16.3424 27.3068L23.2733 20.1842L14.673 11.8155L7.74213 18.9381L16.3424 27.3068Z" fill="#909293" mask="url(#path-1-inside-1_213_252)"/>
<circle cx="15.5267" cy="15.9999" r="14.473" stroke="#909293" stroke-width="2"/>
</svg>
