<svg width="38" height="30" viewBox="0 0 38 30" fill="none" xmlns="http://www.w3.org/2000/svg">
<path id="Vector" d="M4.4 17.8125L3.2 15H11.6L10.64 12.1875H2.8L1.6 9.375H14.08L13.12 6.5625H1.376L0 3.75H6C6 2.75544 6.33714 1.80161 6.93726 1.09835C7.53737 0.395088 8.35131 0 9.2 0H28.4V7.5H33.2L38 15V24.375H34.8C34.8 25.8668 34.2943 27.2976 33.3941 28.3525C32.4939 29.4074 31.273 30 30 30C28.727 30 27.5061 29.4074 26.6059 28.3525C25.7057 27.2976 25.2 25.8668 25.2 24.375H18.8C18.8 25.8668 18.2943 27.2976 17.3941 28.3525C16.4939 29.4074 15.273 30 14 30C12.727 30 11.5061 29.4074 10.6059 28.3525C9.70571 27.2976 9.2 25.8668 9.2 24.375H6V17.8125H4.4ZM30 27.1875C30.6365 27.1875 31.247 26.8912 31.6971 26.3637C32.1471 25.8363 32.4 25.1209 32.4 24.375C32.4 23.6291 32.1471 22.9137 31.6971 22.3863C31.247 21.8588 30.6365 21.5625 30 21.5625C29.3635 21.5625 28.753 21.8588 28.3029 22.3863C27.8529 22.9137 27.6 23.6291 27.6 24.375C27.6 25.1209 27.8529 25.8363 28.3029 26.3637C28.753 26.8912 29.3635 27.1875 30 27.1875ZM32.4 10.3125H28.4V15H35.536L32.4 10.3125ZM14 27.1875C14.6365 27.1875 15.247 26.8912 15.6971 26.3637C16.1471 25.8363 16.4 25.1209 16.4 24.375C16.4 23.6291 16.1471 22.9137 15.6971 22.3863C15.247 21.8588 14.6365 21.5625 14 21.5625C13.3635 21.5625 12.753 21.8588 12.3029 22.3863C11.8529 22.9137 11.6 23.6291 11.6 24.375C11.6 25.1209 11.8529 25.8363 12.3029 26.3637C12.753 26.8912 13.3635 27.1875 14 27.1875Z" fill="black"/>
</svg>
