<svg width="36" height="36" viewBox="0 0 36 36" fill="none" xmlns="http://www.w3.org/2000/svg">
<g id="Group">
<path id="Vector" d="M9.71094 30.208C11.9931 31.9567 14.8718 32.9998 18.0004 32.9998C21.129 32.9998 24.0077 31.9567 26.2899 30.208" stroke="black" stroke-width="4.16667"/>
<path id="Vector_2" d="M14.0538 7.4209C8.56795 9.06331 4.58008 14.0394 4.58008 19.9231C4.58008 21.4037 4.83262 22.8268 5.29803 24.1538" stroke="black" stroke-width="4.16667"/>
<path id="Vector_3" d="M21.9473 7.4209C27.4331 9.06331 31.421 14.0394 31.421 19.9231C31.421 21.4037 31.1684 22.8268 30.703 24.1538" stroke="black" stroke-width="4.16667"/>
<path id="Vector_4" d="M33.0002 27.6152C33.0002 28.6472 32.583 29.5842 31.9042 30.275C31.1856 31.0061 30.1738 31.4613 29.0528 31.4613C26.8728 31.4613 25.1055 29.7393 25.1055 27.6152C25.1055 26.069 26.0419 24.7359 27.3923 24.1249C27.897 23.8965 28.4597 23.769 29.0528 23.769C31.2329 23.769 33.0002 25.491 33.0002 27.6152Z" fill="#2F88FF" stroke="black" stroke-width="4.16667" stroke-linecap="round" stroke-linejoin="round"/>
<path id="Vector_5" d="M10.8947 27.6152C10.8947 28.6472 10.4776 29.5842 9.79871 30.275C9.08013 31.0061 8.06834 31.4613 6.94737 31.4613C4.7673 31.4613 3 29.7393 3 27.6152C3 26.069 3.93643 24.7359 5.28684 24.1249C5.79161 23.8965 6.35421 23.769 6.94737 23.769C9.12742 23.769 10.8947 25.491 10.8947 27.6152Z" fill="#2F88FF" stroke="black" stroke-width="4.16667" stroke-linecap="round" stroke-linejoin="round"/>
<path id="Vector_6" d="M21.9475 6.84615C21.9475 7.87815 21.5303 8.81515 20.8514 9.50592C20.1329 10.2371 19.1211 10.6923 18.0001 10.6923C15.8201 10.6923 14.0527 8.97031 14.0527 6.84615C14.0527 5.29993 14.9891 3.96682 16.3396 3.35585C16.8443 3.12748 17.407 3 18.0001 3C20.1802 3 21.9475 4.72198 21.9475 6.84615Z" fill="#2F88FF" stroke="black" stroke-width="4.16667" stroke-linecap="round" stroke-linejoin="round"/>
</g>
</svg>
