<svg width="36" height="36" viewBox="0 0 36 36" fill="none" xmlns="http://www.w3.org/2000/svg">
<g id="Mask group">
<mask id="mask0_38_3078" style="mask-type:luminance" maskUnits="userSpaceOnUse" x="0" y="0" width="36" height="36">
<g id="Group">
<path id="Vector" d="M6.78418 29.9548L3.38135 23.1807C2.95129 22.3246 2.88235 21.3523 3.18788 20.4522C3.4934 19.552 4.15166 18.7881 5.03512 18.3084L9.62608 15.8159C10.018 15.603 10.4661 15.4931 10.9214 15.4982C11.3766 15.5033 11.8216 15.6232 12.2078 15.8448L12.777 16.1722C12.9095 16.2484 13.0626 16.2887 13.2189 16.2883C13.3752 16.288 13.5282 16.2471 13.6602 16.1702C13.7922 16.0934 13.8979 15.9839 13.9651 15.8542C14.0322 15.7246 14.0581 15.5801 14.0397 15.4375L12.7066 5.02975C12.6684 4.73104 12.7043 4.42825 12.8116 4.14411C12.9189 3.85997 13.0949 3.60186 13.3264 3.38915C13.5778 3.15799 13.9132 3.02016 14.2683 3.00204C14.6234 2.98392 14.9733 3.08678 15.2511 3.29094L15.5642 3.52085C16.0458 3.87505 16.3668 4.38112 16.4649 4.94068L18.32 15.5076C18.3376 15.6119 18.3961 15.7067 18.4846 15.7741C18.573 15.8415 18.6852 15.8769 18.8001 15.8735C18.9149 15.8701 19.0245 15.8283 19.108 15.7558C19.1916 15.6834 19.2434 15.5853 19.2537 15.4801L20.3541 5.03204C20.386 4.72803 20.484 4.433 20.6423 4.16441C20.8006 3.89582 21.0158 3.65912 21.2754 3.46832L21.4461 3.34271C21.7431 3.12443 22.1172 3.01446 22.497 3.03385C22.8767 3.05323 23.2353 3.20061 23.5042 3.44777C23.9392 3.84669 24.1836 4.38873 24.1836 4.95362V21.9002C24.1835 22.0436 24.2275 22.1841 24.3105 22.3055C24.3934 22.4269 24.5121 22.5244 24.6527 22.5866C24.7933 22.6488 24.9501 22.6732 25.1052 22.6571C25.2602 22.641 25.4072 22.585 25.5291 22.4956L28.3263 20.4385C29.6959 19.4321 31.5369 20.0891 32.6803 20.7773C33.044 20.9958 33.0979 21.448 32.8394 21.7693L26.2549 29.9548C26.2549 29.9548 23.355 33 16.7267 33C10.0983 33 7.33681 30.9696 6.78418 29.9548Z" fill="#555555" stroke="white" stroke-width="4.16667" stroke-linecap="round" stroke-linejoin="round"/>
</g>
</mask>
<g mask="url(#mask0_38_3078)">
<path id="Vector_2" d="M-2.33008 -0.49707H37.44V36.0454H-2.33008V-0.49707Z" fill="black"/>
</g>
</g>
</svg>
