<svg width="31" height="35" viewBox="0 0 31 35" fill="none" xmlns="http://www.w3.org/2000/svg">
<g id="fa-solid:file-invoice-dollar" clip-path="url(#clip0_38_3083)">
<path id="Vector" d="M30.4349 7.17773L22.5315 0.478516C22.1682 0.170898 21.6758 0 21.1591 0H20.6667V8.75H31V8.33301C31 7.90234 30.7982 7.48535 30.4349 7.17773ZM18.0833 9.29688V0H1.9375C0.863802 0 0 0.731445 0 1.64062V33.3594C0 34.2686 0.863802 35 1.9375 35H29.0625C30.1362 35 31 34.2686 31 33.3594V10.9375H20.0208C18.9552 10.9375 18.0833 10.1992 18.0833 9.29688ZM5.16667 4.92188C5.16667 4.61973 5.45568 4.375 5.8125 4.375H12.2708C12.6277 4.375 12.9167 4.61973 12.9167 4.92188V6.01562C12.9167 6.31777 12.6277 6.5625 12.2708 6.5625H5.8125C5.45568 6.5625 5.16667 6.31777 5.16667 6.01562V4.92188ZM5.16667 10.3906V9.29688C5.16667 8.99473 5.45568 8.75 5.8125 8.75H12.2708C12.6277 8.75 12.9167 8.99473 12.9167 9.29688V10.3906C12.9167 10.6928 12.6277 10.9375 12.2708 10.9375H5.8125C5.45568 10.9375 5.16667 10.6928 5.16667 10.3906ZM16.7917 28.4293V30.0781C16.7917 30.3803 16.5027 30.625 16.1458 30.625H14.8542C14.4973 30.625 14.2083 30.3803 14.2083 30.0781V28.4177C13.2969 28.378 12.4105 28.1087 11.6759 27.6418C11.361 27.4415 11.3449 27.0423 11.6298 26.8119L12.5784 26.0456C12.802 25.8651 13.1346 25.8569 13.3962 25.9957C13.7086 26.1611 14.063 26.25 14.4311 26.25H16.7004C17.2252 26.25 17.653 25.8453 17.653 25.3483C17.653 24.9416 17.3616 24.5834 16.9451 24.4781L13.3122 23.5553C11.8115 23.1738 10.7628 21.9543 10.7628 20.5892C10.7628 18.913 12.3007 17.5513 14.2075 17.5082V15.8594C14.2075 15.5572 14.4965 15.3125 14.8534 15.3125H16.145C16.5018 15.3125 16.7909 15.5572 16.7909 15.8594V17.5198C17.7023 17.5595 18.5887 17.8281 19.3233 18.2957C19.6382 18.496 19.6543 18.8952 19.3693 19.1256L18.4208 19.8919C18.1972 20.0724 17.8646 20.0806 17.603 19.9418C17.2906 19.7757 16.9362 19.6875 16.568 19.6875H14.2987C13.774 19.6875 13.3461 20.0922 13.3461 20.5892C13.3461 20.9959 13.6376 21.3541 14.0541 21.4594L17.687 22.3822C19.1877 22.7637 20.2364 23.9832 20.2364 25.3483C20.2364 27.0252 18.6985 28.3862 16.7917 28.4293Z" fill="black"/>
</g>
<defs>
<clipPath id="clip0_38_3083">
<rect width="31" height="35" fill="white"/>
</clipPath>
</defs>
</svg>
