<svg width="125" height="26" viewBox="0 0 125 26" fill="none" xmlns="http://www.w3.org/2000/svg">
<g id="Group">
<path id="Vector" fill-rule="evenodd" clip-rule="evenodd" d="M38.3953 0.810059H3.93004C1.74841 0.810059 -0.0169668 2.57856 0.00012304 4.72484V17.7742C0.00012304 19.9376 1.76599 21.6892 3.94713 21.6892H20.2711L27.732 25.8101L26.0354 21.6892H38.3953C40.5764 21.6892 42.342 19.9379 42.342 17.7744V4.72484C42.342 2.56137 40.5762 0.810059 38.3953 0.810059ZM3.20299 3.83223C2.71813 3.86613 2.35461 4.03807 2.11242 4.36426C1.86999 4.67326 1.78332 5.06822 1.83532 5.51452C2.8568 11.9536 3.80871 16.2977 4.69176 18.5469C5.03771 19.371 5.4359 19.766 5.90343 19.7318C6.63047 19.6802 7.49595 18.6842 8.51719 16.744C9.05381 15.6451 9.88486 13.9969 11.0099 11.7991C11.9449 15.0441 13.2257 17.4826 14.8355 19.1136C15.2857 19.5771 15.753 19.7831 16.203 19.7488C16.6014 19.7146 16.9129 19.5085 17.1204 19.1308C17.2938 18.8046 17.3629 18.4266 17.3282 17.9975C17.2244 16.435 17.3802 14.2544 17.8131 11.4557C18.263 8.57108 18.817 6.49334 19.492 5.25711C19.6307 4.99969 19.6824 4.74203 19.6653 4.43303C19.6307 4.03807 19.4576 3.71188 19.1287 3.45422C18.7996 3.1968 18.4361 3.07645 18.0379 3.11083C17.536 3.14522 17.1551 3.38569 16.8953 3.86638C15.8223 5.80657 15.0606 8.94886 14.6107 13.3099C13.9527 11.6615 13.3985 9.72159 12.9661 7.43801C12.7757 6.42505 12.3082 5.94412 11.5465 5.9957C11.0272 6.03009 10.5943 6.37347 10.2484 7.02585L6.45738 14.1856C5.83409 11.6962 5.24547 8.65705 4.70885 5.06822C4.58776 4.17537 4.0858 3.76346 3.20299 3.83223ZM36.5603 5.06822C37.7893 5.32588 38.7068 5.97826 39.3301 7.06C39.884 7.98748 40.1609 9.10335 40.1609 10.4425C40.1609 12.211 39.7109 13.8253 38.8108 15.3017C37.772 17.0186 36.4219 17.8773 34.7427 17.8773C34.4485 17.8773 34.137 17.843 33.8079 17.7742C32.5789 17.5168 31.6614 16.8644 31.0381 15.7826C30.4844 14.8382 30.2073 13.7049 30.2073 12.3827C30.2073 10.6144 30.6575 9.00019 31.5574 7.54093C32.6136 5.82401 33.9636 4.9653 35.6255 4.9653C35.9199 4.9653 36.2315 4.99969 36.5603 5.06822ZM35.8333 14.3575C36.4739 13.7909 36.9065 12.9494 37.1489 11.8163C37.2183 11.4213 37.27 10.992 37.27 10.5457C37.27 10.0478 37.1663 9.51551 36.9585 8.98324C36.6987 8.31342 36.3526 7.95285 35.937 7.86688C35.314 7.74677 34.708 8.09039 34.137 8.93166C33.6695 9.58404 33.3753 10.2708 33.2195 10.9748C33.1328 11.3697 33.0982 11.7991 33.0982 12.2284C33.0982 12.7263 33.2019 13.2586 33.4097 13.7909C33.6695 14.4604 34.0156 14.821 34.4312 14.907C34.8638 14.9927 35.3313 14.8041 35.8333 14.3575ZM28.4766 7.05976C27.8533 5.97802 26.9185 5.32564 25.7068 5.06798C25.3777 4.99945 25.0665 4.96506 24.7718 4.96506C23.1102 4.96506 21.7601 5.82352 20.7042 7.54069C19.8038 8.99995 19.3541 10.6142 19.3541 12.3827C19.3541 13.7049 19.6309 14.838 20.1846 15.7824C20.8079 16.8641 21.7254 17.5165 22.9544 17.7739C23.2833 17.8427 23.5948 17.8771 23.8895 17.8771C25.5684 17.8771 26.9185 17.0186 27.9571 15.3015C28.8575 13.825 29.3072 12.2108 29.3072 10.4423C29.3072 9.10311 29.0303 7.98699 28.4766 7.05976ZM26.2952 11.8158C26.053 12.9491 25.6202 13.7906 24.9798 14.357C24.4778 14.8036 24.0105 14.9925 23.5777 14.9067C23.1622 14.8208 22.816 14.4602 22.5562 13.7904C22.3487 13.2584 22.2447 12.7261 22.2447 12.2282C22.2447 11.7989 22.2794 11.3695 22.366 10.9745C22.5218 10.2706 22.816 9.5838 23.2833 8.93142C23.8545 8.09015 24.4605 7.74653 25.0835 7.86688C25.4991 7.9526 25.8453 8.31318 26.105 8.983C26.3125 9.51527 26.4165 10.0475 26.4165 10.5454C26.4165 10.9917 26.3819 11.4208 26.2952 11.8158Z" fill="#7F54B3"/>
<path id="Vector_2" fill-rule="evenodd" clip-rule="evenodd" d="M46.7212 6.9053C45.5613 8.03861 44.9902 9.48092 44.9902 11.2325C44.9902 13.1039 45.5613 14.6322 46.7039 15.7827C47.8464 16.933 49.3349 17.5166 51.1872 17.5166C51.7239 17.5166 52.3298 17.4308 52.9875 17.2419V14.4602C52.3818 14.6322 51.8623 14.7179 51.4123 14.7179C50.4949 14.7179 49.7678 14.4089 49.2139 13.8079C48.6599 13.1899 48.3828 12.3655 48.3828 11.3184C48.3828 10.3396 48.6599 9.5325 49.1965 8.91451C49.7505 8.27908 50.4255 7.97008 51.2566 7.97008C51.7932 7.97008 52.3642 8.0558 52.9875 8.2275V5.44603C52.4162 5.29153 51.7759 5.22276 51.1006 5.22276C49.3349 5.20581 47.8809 5.77222 46.7212 6.9053ZM58.7346 5.20557C57.1421 5.20557 55.8957 5.73784 54.9956 6.78518C54.0954 7.83277 53.6626 9.30923 53.6626 11.1981C53.6626 13.2414 54.1128 14.8039 54.9956 15.8856C55.8784 16.9673 57.1767 17.5168 58.8733 17.5168C60.5175 17.5168 61.7812 16.9671 62.664 15.8856C63.5468 14.8039 63.997 13.2756 63.997 11.3184C63.997 9.36081 63.5468 7.84997 62.6469 6.78518C61.7294 5.73784 60.4311 5.20557 58.7346 5.20557ZM60.1023 14.1341C59.7905 14.615 59.3232 14.8554 58.7346 14.8554C58.1806 14.8554 57.7653 14.615 57.4709 14.1341C57.1767 13.6534 57.0383 12.6917 57.0383 11.2325C57.0383 8.98304 57.6096 7.86692 58.7692 7.86692C59.9809 7.86692 60.6042 9.00023 60.6042 11.2838C60.5869 12.6917 60.4138 13.6534 60.1023 14.1341ZM72.5485 5.53176L71.9252 8.15897C71.7695 8.82854 71.6137 9.51531 71.4753 10.2193L71.1291 12.0394C70.8002 10.2193 70.35 8.0558 69.779 5.53176H65.7629L64.2565 17.2248H67.2687L68.0822 9.17193L70.1423 17.2248H72.2887L74.2621 9.18912L75.1105 17.2248H78.2609L76.6684 5.53176H72.5485ZM86.9681 5.53176L86.3451 8.15897C86.1891 8.82854 86.0333 9.51531 85.8949 10.2193L85.5487 12.0394C85.2199 10.2193 84.7697 8.0558 84.1986 5.53176H80.1825L78.6764 17.2248H81.6884L82.5018 9.17193L84.5619 17.2248H86.7084L88.6647 9.18912L89.5128 17.2248H92.6634L91.0707 5.53176H86.9681ZM96.766 12.606H99.5875V10.1849H96.766V8.03861H100.02V5.54919H93.5809V17.2419H100.038V14.7525H96.766V12.606ZM109.004 10.7515C109.333 10.2193 109.506 9.66981 109.506 9.10339C109.506 8.00447 109.074 7.12881 108.208 6.49338C107.343 5.85819 106.148 5.532 104.659 5.532H100.955V17.2248H104.14V11.9021H104.192L106.771 17.2248H110.13L107.585 11.9536C108.19 11.6788 108.676 11.2838 109.004 10.7515ZM104.123 10.5627V7.78119C104.885 7.79815 105.421 7.9185 105.75 8.15897C106.079 8.39919 106.235 8.77696 106.235 9.32642C106.235 10.1335 105.525 10.5457 104.123 10.5627ZM111.376 6.90554C110.216 8.03885 109.645 9.48092 109.645 11.2325C109.645 13.1039 110.216 14.6322 111.359 15.7827C112.502 16.933 113.99 17.5166 115.842 17.5166C116.379 17.5166 116.985 17.4308 117.642 17.2419V14.4602C117.037 14.6322 116.517 14.7179 116.067 14.7179C115.15 14.7179 114.423 14.4089 113.869 13.8079C113.315 13.1899 113.038 12.3655 113.038 11.3184C113.038 10.3396 113.315 9.5325 113.851 8.91451C114.405 8.27908 115.08 7.97008 115.911 7.97008C116.448 7.97008 117.019 8.0558 117.642 8.2275V5.44603C117.071 5.29153 116.431 5.22276 115.756 5.22276C114.007 5.20581 112.536 5.77247 111.376 6.90554ZM121.711 14.7179V12.5888H124.532V10.1679H121.711V8.02166H124.982V5.53176H118.543V17.2248H125V14.7351H121.711V14.7179Z" fill="white"/>
</g>
</svg>
